<?xml version="1.0" encoding="utf-8"?>
<!-- Generator: Adobe Illustrator 16.0.0, SVG Export Plug-In . SVG Version: 6.00 Build 0)  -->
<!DOCTYPE svg PUBLIC "-//W3C//DTD SVG 1.1//EN" "http://www.w3.org/Graphics/SVG/1.1/DTD/svg11.dtd">
<svg version="1.1" id="Layer_1" xmlns="http://www.w3.org/2000/svg" xmlns:xlink="http://www.w3.org/1999/xlink" x="0px" y="0px"
	 width="512px" height="512px" viewBox="0 0 512 512" enable-background="new 0 0 512 512" xml:space="preserve">
<g>
	<g>
		<polygon points="447.984,336 181.547,336 69.547,80 0.016,80 0.016,48 90.484,48 202.484,304 447.984,304 		"/>
	</g>
	<polygon points="511.984,112 447.984,272 224,272 160.016,112 	"/>
	<path d="M287.984,416c0,26.5-21.484,48-47.984,48s-47.984-21.5-47.984-48S213.5,368,240,368S287.984,389.5,287.984,416z"/>
	<path d="M447.984,416c0,26.5-21.5,48-48,48s-48-21.5-48-48s21.5-48,48-48S447.984,389.5,447.984,416z"/>
</g>
</svg>
